<?xml version="1.0" encoding="UTF-8"?>
<svg width="340px" height="545px" viewBox="0 0 340 545" version="1.1" xmlns="http://www.w3.org/2000/svg" xmlns:xlink="http://www.w3.org/1999/xlink">
    <!-- Generator: Sketch 61.2 (89653) - https://sketch.com -->
    <title>fist</title>
    <desc>Created with Sketch.</desc>
    <g id="fist" stroke="none" stroke-width="1" fill="none" fill-rule="evenodd">
        <polygon id="fist_1_-path" fill="#000000" fill-rule="nonzero" points="305.386424 220.044361 296.49706 217.786745 252.191342 206.639765 249.792624 206.075361 249.651523 206.498664 247.535008 215.529129 238.504543 213.694816 195.04543 204.946553 169.788348 211.5783 205.063602 283.116515 160.475681 215.105826 98.8145377 197.750401 66.9257082 205.793159 82.4468199 192.811865 68.4778193 186.744522 155.113843 171.364511 130.844468 117.887226 14.4361304 152.739177 8.36878675 256.448423 86.5387493 325.729022 154.549439 331.373063 95.8514164 339.41582 83.85783 545 294.944949 545 280.552646 322.765901 235.964725 322.483699 306.938536 298.778728 311.453768 199.302512 307.926243 211.154997"></polygon>
        <polygon id="fist_1_-path" fill="#000000" fill-rule="nonzero" points="112.642437 30.6867985 52.5334046 37.7418493 48.8647782 132.843934 110.667023 114.2186"></polygon>
        <polygon id="fist_1_-path" fill="#000000" fill-rule="nonzero" points="128.163549 108.997862 135.641903 106.740246 138.887226 113.936398 163.297702 167.413683 168.095136 177.996259 156.665954 179.971673 115.464458 187.308926 114.900053 192.811865 135.2186 198.597007 165.696419 203.25334 167.812934 202.688936 179.806521 199.584714 205.628006 28.7113843 131.832175 17 122.80171 110.691074"></polygon>
        <polygon id="fist_1_-path" fill="#000000" fill-rule="nonzero" points="240.479957 204.382149 273.779797 59.1892036 216.633886 46.0668092 192.646713 194.646179"></polygon>
        <polygon id="fist_1_-path" fill="#000000" fill-rule="nonzero" points="298.895778 208.615179 331.631213 98.2741849 286.619989 82.0475681 254.590059 197.468199"></polygon>
    </g>
</svg>